<svg width="189" height="41" viewBox="0 0 189 41" fill="none" xmlns="http://www.w3.org/2000/svg">
<path d="M2.11465 32V10.4H6.19465V19.28H15.8546V10.4H19.9346V32H15.8546V23.09H6.19465V32H2.11465ZM27.1459 32V10.4H41.2459V14.21H31.2259V18.83H39.4459V22.64H31.2259V28.19H41.2459V32H27.1459ZM48.1412 32V10.4H52.2212V28.19H61.5212V32H48.1412ZM67.0717 32V10.4H76.1917C76.4017 10.4 76.6817 10.41 77.0317 10.43C77.3917 10.44 77.7117 10.47 77.9917 10.52C79.2817 10.72 80.3367 11.145 81.1567 11.795C81.9867 12.445 82.5967 13.265 82.9867 14.255C83.3767 15.235 83.5717 16.33 83.5717 17.54C83.5717 18.75 83.3717 19.85 82.9717 20.84C82.5817 21.82 81.9717 22.635 81.1417 23.285C80.3217 23.935 79.2717 24.36 77.9917 24.56C77.7117 24.6 77.3917 24.63 77.0317 24.65C76.6717 24.67 76.3917 24.68 76.1917 24.68H71.1517V32H67.0717ZM71.1517 20.87H76.0117C76.2217 20.87 76.4517 20.86 76.7017 20.84C76.9517 20.82 77.1817 20.78 77.3917 20.72C77.9417 20.57 78.3667 20.32 78.6667 19.97C78.9667 19.61 79.1717 19.215 79.2817 18.785C79.4017 18.345 79.4617 17.93 79.4617 17.54C79.4617 17.15 79.4017 16.74 79.2817 16.31C79.1717 15.87 78.9667 15.475 78.6667 15.125C78.3667 14.765 77.9417 14.51 77.3917 14.36C77.1817 14.3 76.9517 14.26 76.7017 14.24C76.4517 14.22 76.2217 14.21 76.0117 14.21H71.1517V20.87ZM89.5834 32V10.4H103.683V14.21H93.6634V18.83H101.883V22.64H93.6634V28.19H103.683V32H89.5834ZM110.279 32V10.4H119.399C119.609 10.4 119.889 10.41 120.239 10.43C120.599 10.44 120.919 10.47 121.199 10.52C122.489 10.72 123.544 11.145 124.364 11.795C125.194 12.445 125.804 13.265 126.194 14.255C126.584 15.235 126.779 16.33 126.779 17.54C126.779 19.35 126.329 20.9 125.429 22.19C124.529 23.47 123.119 24.26 121.199 24.56L119.399 24.68H114.359V32H110.279ZM122.459 32L118.199 23.21L122.399 22.4L127.079 32H122.459ZM114.359 20.87H119.219C119.429 20.87 119.659 20.86 119.909 20.84C120.159 20.82 120.389 20.78 120.599 20.72C121.149 20.57 121.574 20.32 121.874 19.97C122.174 19.61 122.379 19.215 122.489 18.785C122.609 18.345 122.669 17.93 122.669 17.54C122.669 17.15 122.609 16.74 122.489 16.31C122.379 15.87 122.174 15.475 121.874 15.125C121.574 14.765 121.149 14.51 120.599 14.36C120.389 14.3 120.159 14.26 119.909 14.24C119.659 14.22 119.429 14.21 119.219 14.21H114.359V20.87ZM133.676 32V10.4H137.756V32H133.676ZM154.523 32.45C152.363 32.45 150.498 31.98 148.928 31.04C147.368 30.1 146.163 28.785 145.313 27.095C144.473 25.405 144.053 23.44 144.053 21.2C144.053 18.96 144.473 16.995 145.313 15.305C146.163 13.615 147.368 12.3 148.928 11.36C150.498 10.42 152.363 9.95 154.523 9.95C156.683 9.95 158.543 10.42 160.103 11.36C161.673 12.3 162.878 13.615 163.718 15.305C164.568 16.995 164.993 18.96 164.993 21.2C164.993 23.44 164.568 25.405 163.718 27.095C162.878 28.785 161.673 30.1 160.103 31.04C158.543 31.98 156.683 32.45 154.523 32.45ZM154.523 28.61C155.893 28.63 157.033 28.335 157.943 27.725C158.853 27.115 159.533 26.25 159.983 25.13C160.443 24.01 160.673 22.7 160.673 21.2C160.673 19.7 160.443 18.4 159.983 17.3C159.533 16.2 158.853 15.345 157.943 14.735C157.033 14.125 155.893 13.81 154.523 13.79C153.153 13.77 152.013 14.065 151.103 14.675C150.193 15.285 149.508 16.15 149.048 17.27C148.598 18.39 148.373 19.7 148.373 21.2C148.373 22.7 148.598 24 149.048 25.1C149.508 26.2 150.193 27.055 151.103 27.665C152.013 28.275 153.153 28.59 154.523 28.61ZM170.988 32V10.4H180.108C180.318 10.4 180.598 10.41 180.948 10.43C181.308 10.44 181.628 10.47 181.908 10.52C183.198 10.72 184.253 11.145 185.073 11.795C185.903 12.445 186.513 13.265 186.903 14.255C187.293 15.235 187.488 16.33 187.488 17.54C187.488 19.35 187.038 20.9 186.138 22.19C185.238 23.47 183.828 24.26 181.908 24.56L180.108 24.68H175.068V32H170.988ZM183.168 32L178.908 23.21L183.108 22.4L187.788 32H183.168ZM175.068 20.87H179.928C180.138 20.87 180.368 20.86 180.618 20.84C180.868 20.82 181.098 20.78 181.308 20.72C181.858 20.57 182.283 20.32 182.583 19.97C182.883 19.61 183.088 19.215 183.198 18.785C183.318 18.345 183.378 17.93 183.378 17.54C183.378 17.15 183.318 16.74 183.198 16.31C183.088 15.87 182.883 15.475 182.583 15.125C182.283 14.765 181.858 14.51 181.308 14.36C181.098 14.3 180.868 14.26 180.618 14.24C180.368 14.22 180.138 14.21 179.928 14.21H175.068V20.87Z" fill="#006ED3"/>
</svg>
